<svg width="11" height="12" fill="none" xmlns="http://www.w3.org/2000/svg"><path d="M4.769.103l-4.616 3.6A.379.379 0 000 4v2.4c0 .157.107.3.273.365a.518.518 0 00.497-.068l4.307-3.359 4.306 3.36c.136.105.33.132.497.067.167-.064.274-.208.274-.365V4a.383.383 0 00-.152-.298L5.386.102a.516.516 0 00-.617 0z" fill="url(#paint0_linear)"/><path d="M4.769 5.302l-4.616 3.6A.379.379 0 000 9.2v2.4c0 .157.107.3.273.365a.518.518 0 00.497-.068l4.307-3.359 4.306 3.36c.136.105.33.132.497.067.167-.065.274-.208.274-.365V9.2a.383.383 0 00-.152-.298l-4.616-3.6a.516.516 0 00-.617 0z" fill="#EFEFEF"/><defs><linearGradient id="paint0_linear" x1="0" y1="6.8" x2="7.065" y2="-.499" gradientUnits="userSpaceOnUse"><stop stop-color="#FFD380"/><stop offset="1" stop-color="#FFBD3F"/></linearGradient></defs></svg>