<svg width="11" height="12" fill="none" xmlns="http://www.w3.org/2000/svg"><path d="M4.769 11.897l-4.616-3.6A.379.379 0 010 8V5.6c0-.157.107-.3.273-.365a.518.518 0 01.497.068l4.307 3.359 4.306-3.36a.517.517 0 01.497-.067c.167.064.274.208.274.365V8c0 .114-.056.22-.152.298l-4.616 3.6a.516.516 0 01-.617 0z" fill="url(#paint0_linear)"/><path d="M4.769 6.698l-4.616-3.6A.379.379 0 010 2.8V.4C0 .243.107.1.273.035A.518.518 0 01.77.103l4.307 3.359L9.383.102A.517.517 0 019.88.036c.167.065.274.208.274.365v2.4a.384.384 0 01-.152.298l-4.616 3.6a.516.516 0 01-.617 0z" fill="#494B4A"/><defs><linearGradient id="paint0_linear" x1="0" y1="5.2" x2="7.065" y2="12.499" gradientUnits="userSpaceOnUse"><stop stop-color="#FFD380"/><stop offset="1" stop-color="#FFBD3F"/></linearGradient></defs></svg>