<svg width="19" height="12" fill="none" xmlns="http://www.w3.org/2000/svg"><path fill-rule="evenodd" clip-rule="evenodd" d="M13.082 1.372l.157.143a.717.717 0 01.043 1.01l-7.544 8.226a.77.77 0 01-1.098-.008l-3.45-3.76a.728.728 0 01.044-1.025l.17-.156a.728.728 0 011.024.044l2.79 3.04 6.854-7.471a.717.717 0 011.01-.043z" fill="#494B4A"/><path d="M13.239 1.515l.339-.367-.002-.002-.337.37zm-.157-.143l.337-.37-.337.37zm.387.64l.5-.022-.5.021zm-.187.513l.369.338-.369-.338zm-7.544 8.226l.355.352.007-.007.006-.007-.368-.338zm-.252.169l-.19-.463.19.463zm-.846-.177l-.368.338.008.01.36-.348zm-3.45-3.76l-.37.338h.002l.368-.337zM1 6.463L.502 6.44l.5.02zm.234-.504l.34.368v-.001l-.34-.367zm.17-.156l-.338-.37-.003.003.34.367zm1.024.044l.369-.338-.001-.001-.368.339zm2.79 3.04l-.37.338.37.402.368-.402-.369-.338zm6.854-7.471l-.367-.34-.002.002.369.338zm.496-.23l.021.5-.021-.5zm1.008-.039l-.157-.143-.675.738.157.143.675-.738zm.392.844a1.216 1.216 0 00-.39-.842l-.678.735a.216.216 0 01.07.15l.998-.043zm-.316.872c.216-.237.33-.551.316-.872l-.999.043a.217.217 0 01-.056.155l.739.674zM6.106 11.09l7.545-8.226-.737-.676-7.545 8.226.737.676zm-.43.293c.156-.064.298-.16.417-.279l-.71-.704a.268.268 0 01-.088.059l.381.924zm-.492.096c.169 0 .336-.032.492-.096l-.38-.925a.269.269 0 01-.105.02l-.007 1zm-.49-.103c.154.067.321.101.49.103l.007-1a.268.268 0 01-.104-.022l-.394.919zm-.414-.285c.118.122.258.219.413.285l.394-.919a.268.268 0 01-.087-.06l-.72.694zM.822 7.322l3.45 3.759.737-.676-3.45-3.76-.737.677zm-.32-.881c-.015.324.1.64.319.88l.739-.674a.228.228 0 01-.06-.164l-.999-.042zm.393-.85a1.23 1.23 0 00-.394.85l1 .042a.228.228 0 01.072-.157L.895 5.59zm.168-.156l-.169.157.68.733.17-.157-.681-.733zm.883-.322c-.324-.014-.64.1-.88.319l.674.74a.228.228 0 01.163-.06l.043-1zm.85.394a1.228 1.228 0 00-.85-.394l-.043.999c.06.003.117.029.158.073l.735-.678zm2.79 3.041l-2.79-3.04-.736.676 2.789 3.04.737-.676zm6.117-7.471L4.85 8.548l.737.676 6.854-7.471-.736-.676zm.844-.391a1.217 1.217 0 00-.842.39l.734.678a.217.217 0 01.15-.07l-.042-.998zm.872.316a1.217 1.217 0 00-.872-.316l.042.999a.217.217 0 01.156.056l.674-.739z" fill="#494B4A"/><path fill-rule="evenodd" clip-rule="evenodd" d="M17.35 1.529l.13.12a.693.693 0 01.042.977L9.91 10.92l-.022.02-.123.113a.505.505 0 01-.712-.03l-.113-.124-.102-.093a.69.69 0 01-.124-.154l-.515-.562a.505.505 0 01.03-.712l.506-.461a.505.505 0 01.711.03l.079.088 6.847-7.464a.693.693 0 01.977-.042z" fill="url(#paint0_linear)"/><path d="M17.48 1.649l.34-.367-.002-.002-.338.369zm-.13-.12l.337-.369-.338.37zm.172 1.097l.369.338v-.001l-.369-.337zM9.91 10.92l.34.367.014-.014.014-.015-.368-.338zm-.022.02l.338.368.002-.002-.34-.367zm-.123.113l.337.37v-.002l-.337-.368zm-.362.131l.021-.5-.021.5zm-.35-.162l-.368.339h.001l.367-.339zM8.94 10.9l.368-.338-.014-.015-.015-.015-.339.368zm-.102-.093l-.338.368.338-.368zm-.124-.154l.429-.256-.026-.044-.034-.037-.37.337zm-.515-.562l-.37.337.37-.337zm-.132-.362l.5.021-.5-.021zm.162-.35l-.337-.37-.002.003.34.367zm.506-.461l-.337-.37.337.37zm.711.03l.372-.333-.005-.006-.367.34zm.079.088l-.373.334.368.41.373-.406-.368-.338zm6.847-7.464l-.367-.34-.001.002.368.338zm.48-.222l-.021-.5.021.5zm.966-.069l-.13-.12-.676.738.13.12.676-.738zm.384.827a1.193 1.193 0 00-.383-.825l-.678.734c.038.035.06.083.062.134l1-.043zm-.31.856c.212-.233.324-.54.31-.856l-.999.043a.193.193 0 01-.05.139l.739.674zm-7.614 8.295l7.613-8.294-.737-.676-7.613 8.294.737.676zm-.05.048l.021-.02-.68-.733-.02.02.68.733zm-.125.115l.123-.113-.676-.737-.123.113.676.737zm-.722.263c.266.011.524-.083.72-.262l-.673-.739a.005.005 0 01-.004.002l-.043.999zm-.695-.323c.18.195.43.311.695.323l.043-1-.003-.001-.735.678zm-.114-.123l.113.123.736-.677-.113-.123-.736.677zm-.072-.064l.102.094.677-.737-.102-.093-.677.736zm-.215-.265c.058.098.13.187.215.264l.677-.735a.188.188 0 01-.034-.042l-.858.513zm-.455-.482l.515.563.738-.675-.516-.563-.737.675zm-.262-.72a1 1 0 00.261.72l.739-.674a.005.005 0 01-.001-.004l-1-.043zm.322-.696c-.195.18-.311.43-.322.695l.999.043.001-.003-.678-.735zm.508-.464l-.506.462.674.739.506-.462-.674-.739zm.72-.261a1.005 1.005 0 00-.72.261l.674.74a.005.005 0 01.003-.002l.043-1zm.695.322c-.18-.195-.43-.31-.695-.322l-.043.999c.002 0 .003 0 .004.002l.734-.679zm.084.093l-.079-.087-.744.667.078.088.745-.668zm6.107-7.468L9.156 8.697l.737.676 6.848-7.464-.737-.676zm.827-.384a1.193 1.193 0 00-.826.383l.735.678a.194.194 0 01.134-.062L16.83.85zm.855.31a1.193 1.193 0 00-.855-.31l.043 1a.194.194 0 01.139.05l.673-.74z" fill="url(#paint1_linear)"/><defs><linearGradient id="paint0_linear" x1="8.067" y1="1.348" x2="14.734" y2="10.788" gradientUnits="userSpaceOnUse"><stop stop-color="#FFD380"/><stop offset="1" stop-color="#FFBD3F"/></linearGradient><linearGradient id="paint1_linear" x1="8.067" y1="1.348" x2="14.734" y2="10.788" gradientUnits="userSpaceOnUse"><stop stop-color="#FFD380"/><stop offset="1" stop-color="#FFBD3F"/></linearGradient></defs></svg>