<svg width="27" height="27" fill="none" xmlns="http://www.w3.org/2000/svg"><path d="M18.032 20.15H7.348a.638.638 0 01-.639-.637v-7.658c0-.276.18-.521.443-.606l2.646-.85a.64.64 0 01.78.348l2.112 4.732 2.112-4.732a.64.64 0 01.78-.348l2.646.85c.264.085.443.33.443.606v7.658a.638.638 0 01-.639.637z" fill="#fff"/><path d="M8.555 19.513v-8.715l-1.403.451a.637.637 0 00-.443.606v7.658c0 .352.286.637.64.637h1.846a.638.638 0 01-.64-.637z" fill="#D7D7D7"/><path d="M12.69 0a4.328 4.328 0 00-4.326 4.319 4.328 4.328 0 008.653 0A4.328 4.328 0 0012.69 0z" fill="#424342"/><path d="M15.311 18.157l-4.9-.004-1.847 1.158-1.815-1.16-1.848 1.159-1.723-1.16-2.315 2.27 2.338 2.273 11.905.007c.877 2.04 3.119 3.432 5.445 3.433 3.102.002 5.598-2.546 5.582-5.699-.016-3.152-2.538-5.703-5.64-5.705a5.592 5.592 0 00-5.182 3.428z" fill="#fff"/><path d="M3.83 20.406l1 .573a.578.578 0 00.596-.013l.97-.614a.578.578 0 01.598-.012l1.261.726c.158.091.35.102.517.03l2.16-.929 4.056.004a1.37 1.37 0 001.18-.674 5.593 5.593 0 014.845-2.753c2.254 0 4.202 1.35 5.104 3.297-.213-2.969-2.652-5.31-5.623-5.312a5.592 5.592 0 00-5.183 3.428l-4.9-.004-1.847 1.158-1.815-1.16-1.848 1.159-1.723-1.16-2.315 2.27 1.293 1.257.943-1.138a.578.578 0 01.732-.133z" fill="#D7D7D7"/><path d="M10.01 21.832h1.675v1.731H10.01v-1.73z" fill="url(#paint0_linear)"/><path d="M20.494 13.864h-.004c-.322 0-.64.024-.953.07v-2.08c0-.654-.42-1.228-1.044-1.429l-2.646-.85a1.503 1.503 0 00-1.835.819l-1.322 2.961-1.322-2.961a1.503 1.503 0 00-1.835-.819l-2.646.85c-.624.2-1.043.775-1.043 1.43v5.843l-.926.58-1.257-.846a.866.866 0 00-1.089.1l-2.315 2.27a.87.87 0 00.003 1.239l2.338 2.273a.865.865 0 00.602.245l5.505.003.001-1.73-5.153-.004-1.451-1.41 1.178-1.156 1.138.766c.284.19.653.197.943.015l1.384-.867 1.352.864c.282.18.643.182.926.004l1.637-1.026 4.65.004a.865.865 0 00.799-.53 4.734 4.734 0 014.381-2.898h.003c2.619.002 4.76 2.175 4.774 4.845.069 2.573-2.134 4.878-4.713 4.83h-.003c-2.002-.002-3.914-1.198-4.65-2.91a.865.865 0 00-.795-.524l-2.073-.002v1.731l1.534.001c1.124 2.078 3.616 3.46 5.983 3.434 3.514.07 6.54-3.06 6.448-6.57-.018-3.618-2.936-6.563-6.504-6.565zm-5.73 3.427l-4.351-.004h-.001a.865.865 0 00-.46.133l-1.384.867-.993-.635v-5.63l2.296-.737L11.9 15.83c.274.673 1.307.673 1.58 0l2.03-4.546 2.296.737v2.418a6.439 6.439 0 00-3.041 2.851z" fill="#424342"/><path d="M20.548 21.662a1.22 1.22 0 001.211-1.23c0-.68-.542-1.232-1.211-1.232-.67 0-1.212.552-1.212 1.231 0 .68.543 1.231 1.212 1.231z" fill="url(#paint1_linear)"/><defs><linearGradient id="paint0_linear" x1="10.01" y1="21.832" x2="11.188" y2="23.48" gradientUnits="userSpaceOnUse"><stop stop-color="#FFD380"/><stop offset="1" stop-color="#FFBD3F"/></linearGradient><linearGradient id="paint1_linear" x1="19.336" y1="19.2" x2="21.002" y2="21.57" gradientUnits="userSpaceOnUse"><stop stop-color="#FFD380"/><stop offset="1" stop-color="#FFBD3F"/></linearGradient></defs></svg>