<svg width="16" height="12" fill="none" xmlns="http://www.w3.org/2000/svg"><path d="M5.334 0a2.667 2.667 0 100 5.334 2.667 2.667 0 000-5.334zM8 6.667H2.667A2.667 2.667 0 000 9.333V12h10.667V9.333A2.668 2.668 0 008 6.667z" fill="#494B4A"/><path d="M10.666 0c-.71 0-1.353.283-1.832.737.318.572.5 1.23.5 1.93s-.182 1.357-.5 1.93a2.652 2.652 0 001.832.736 2.667 2.667 0 000-5.333z" fill="url(#paint0_linear)"/><path d="M13.333 6.667h-2.36A3.979 3.979 0 0112 9.333V12h4V9.333a2.668 2.668 0 00-2.667-2.666z" fill="url(#paint1_linear)"/><defs><linearGradient id="paint0_linear" x1="8.834" y1="0" x2="12.596" y2="4.586" gradientUnits="userSpaceOnUse"><stop stop-color="#FFD380"/><stop offset="1" stop-color="#FFBD3F"/></linearGradient><linearGradient id="paint1_linear" x1="10.973" y1="6.667" x2="14.633" y2="11.652" gradientUnits="userSpaceOnUse"><stop stop-color="#FFD380"/><stop offset="1" stop-color="#FFBD3F"/></linearGradient></defs></svg>