<svg width="27" height="23" fill="none" xmlns="http://www.w3.org/2000/svg"><g filter="url(#filter0_i)"><path fill-rule="evenodd" clip-rule="evenodd" d="M.502 11.332l6.009 2.179 2.325 7.268c.15.466.735.638 1.124.33l3.349-2.654a1.021 1.021 0 011.218-.033l6.04 4.262c.416.294 1.006.072 1.11-.416l4.425-20.686c.114-.534-.426-.979-.948-.782L.495 10.044a.682.682 0 00.006 1.288zm7.96 1.019l11.742-7.029c.211-.126.428.152.247.315l-9.69 8.755c-.342.308-.561.72-.623 1.168l-.33 2.377c-.044.318-.503.35-.594.042l-1.27-4.335a1.135 1.135 0 01.517-1.293z" fill="#BCBCBC"/></g><defs><filter id="filter0_i" x=".042" y=".752" width="26.075" height="24.064" filterUnits="userSpaceOnUse" color-interpolation-filters="sRGB"><feFlood flood-opacity="0" result="BackgroundImageFix"/><feBlend in="SourceGraphic" in2="BackgroundImageFix" result="shape"/><feColorMatrix in="SourceAlpha" values="0 0 0 0 0 0 0 0 0 0 0 0 0 0 0 0 0 0 127 0" result="hardAlpha"/><feOffset dy="2"/><feGaussianBlur stdDeviation="1.5"/><feComposite in2="hardAlpha" operator="arithmetic" k2="-1" k3="1"/><feColorMatrix values="0 0 0 0 0 0 0 0 0 0 0 0 0 0 0 0 0 0 0.25 0"/><feBlend in2="shape" result="effect1_innerShadow"/></filter></defs></svg>