<?xml version="1.0" encoding="utf-8"?>
<!-- Generator: Adobe Illustrator 17.0.0, SVG Export Plug-In . SVG Version: 6.00 Build 0)  -->
<!DOCTYPE svg PUBLIC "-//W3C//DTD SVG 1.1//EN" "http://www.w3.org/Graphics/SVG/1.1/DTD/svg11.dtd">
<svg version="1.1" id="Слой_1" xmlns="http://www.w3.org/2000/svg" xmlns:xlink="http://www.w3.org/1999/xlink" x="0px" y="0px"
	 width="200px" height="200px" viewBox="0 0 200 200" enable-background="new 0 0 200 200" xml:space="preserve">
<linearGradient id="SVGID_1_" gradientUnits="userSpaceOnUse" x1="176.6062" y1="164.2803" x2="23.3938" y2="35.7197">
	<stop  offset="0" style="stop-color:#B2912A"/>
	<stop  offset="1" style="stop-color:#BDD26D"/>
</linearGradient>
<circle fill="url(#SVGID_1_)" cx="100" cy="100" r="100"/>
<path display="none" fill="#FFFFFF" d="M141.304,139.061c-7.668,5.265-15.822,6.147-19.433,6.595
	c-1.774,0.226-4.824,0.447-8.096,0.618l-0.148,20.534l-12.641-0.093l0.146-20.204l-9.622-0.07l-0.146,20.204l-12.641-0.093
	l0.146-20.204L54,146.169l2.704-15.168l7.564,0.06c2.538,0.013,3.603-0.217,4.673-1.21c1.068-0.999,1.315-2.533,1.322-3.775
	l0.371-52.303c0.028-3.283-0.229-4.166-1.727-5.859c-1.494-1.7-5.042-1.943-7.034-1.957l-7.308-0.059l0.096-13.121l24.868,0.173
	l0.144-20.264l12.641,0.093l-0.144,20.264l9.622,0.07l0.151-20.265l12.641,0.093l-0.148,20.508
	c9.424,0.654,16.426,2.491,22.511,7.068c7.879,5.902,7.394,16.057,7.19,18.483c-0.193,2.416-1.286,7.075-3.432,10.066
	c-2.143,3.004-7.368,5.975-7.368,5.975s6.128,1.35,10.424,4.626c4.284,3.279,7.439,9.029,7.189,17.418
	C150.73,125.48,148.951,133.795,141.304,139.061z M106.097,104.423c-4.76-0.264-9.527-0.297-14.288-0.102l-0.194,27.118
	c0,0,8.385,0.237,14.004-0.134c5.611-0.375,11.407-1.749,14.318-3.329c2.893-1.575,6.405-4.033,6.449-10.232
	c0.043-6.205-4.064-8.829-6.431-10.026c-2.348-1.202-7.599-2.834-13.857-3.288L106.097,104.423z M102.413,91.821
	c4.612-0.149,9.522-1.171,13.079-3.094c3.557-1.923,5.59-4.987,5.503-9.594c-0.086-4.601-3.129-8.527-8.314-10.163
	c-5.189-1.628-8.672-1.78-12.624-1.863c-3.951-0.084-7.981,0.231-7.981,0.231l-0.179,24.404
	C91.892,91.742,97.804,91.956,102.413,91.821z"/>
<g>
	<path fill="#FFFFFF" d="M57.414,40.679l11.24-0.309c14.443-0.403,21.541-0.435,29.617,0.088c11.101,0.712,20.312,2.515,28.324,5.92
		c20.205,8.58,30.638,26.685,30.379,54.789l-0.013,0.479c-1.355,26.944-11.07,43.769-29.308,51.479
		c-7.401,3.121-15.811,4.596-26.055,4.987c-7.275,0.265-12.772,0.095-27.524-0.681l-5.642-0.284l-11.013-0.53
		C57.414,156.611,57.414,40.679,57.414,40.679z M80.544,63.247v71.337c21.787,1.015,30.398,0.485,38.114-2.767
		c9.204-3.89,14.216-12.526,15.187-31.098c0.132-19.057-5.277-28.362-16.302-33.052C109.228,64.123,99.626,63.052,80.544,63.247
		L80.544,63.247z"/>
	<path fill="#FFFFFF" d="M40.998,88.602h61.156v21.371H40.998V88.602z"/>
</g>
</svg>
