<?xml version="1.0" encoding="utf-8"?>
<!-- Generator: Adobe Illustrator 17.0.0, SVG Export Plug-In . SVG Version: 6.00 Build 0)  -->
<!DOCTYPE svg PUBLIC "-//W3C//DTD SVG 1.1//EN" "http://www.w3.org/Graphics/SVG/1.1/DTD/svg11.dtd">
<svg version="1.1" id="Слой_1" xmlns="http://www.w3.org/2000/svg" xmlns:xlink="http://www.w3.org/1999/xlink" x="0px" y="0px"
	 width="200px" height="200px" viewBox="0 0 200 200" enable-background="new 0 0 200 200" xml:space="preserve">
<linearGradient id="SVGID_1_" gradientUnits="userSpaceOnUse" x1="176.6062" y1="164.2803" x2="23.3938" y2="35.7197">
	<stop  offset="0" style="stop-color:#2A3A64"/>
	<stop  offset="1" style="stop-color:#5C7AB4"/>
</linearGradient>
<circle fill="url(#SVGID_1_)" cx="100" cy="100" r="100"/>
<path display="none" fill="#FFFFFF" d="M141.304,139.061c-7.668,5.265-15.822,6.147-19.433,6.595
	c-1.774,0.226-4.824,0.447-8.096,0.618l-0.148,20.534l-12.641-0.093l0.146-20.204l-9.622-0.07l-0.146,20.204l-12.641-0.093
	l0.146-20.204L54,146.169l2.704-15.168l7.564,0.06c2.538,0.013,3.603-0.217,4.673-1.21c1.068-0.999,1.315-2.533,1.322-3.775
	l0.371-52.303c0.028-3.283-0.229-4.166-1.727-5.859c-1.494-1.7-5.042-1.943-7.034-1.957l-7.308-0.059l0.096-13.121l24.868,0.173
	l0.144-20.264l12.641,0.093l-0.144,20.264l9.622,0.07l0.151-20.265l12.641,0.093l-0.148,20.508
	c9.424,0.654,16.426,2.491,22.511,7.068c7.879,5.902,7.394,16.057,7.19,18.483c-0.193,2.416-1.286,7.075-3.432,10.066
	c-2.143,3.004-7.368,5.975-7.368,5.975s6.128,1.35,10.424,4.626c4.284,3.279,7.439,9.029,7.189,17.418
	C150.73,125.48,148.951,133.795,141.304,139.061z M106.097,104.423c-4.76-0.264-9.527-0.297-14.288-0.102l-0.194,27.118
	c0,0,8.385,0.237,14.004-0.134c5.611-0.375,11.407-1.749,14.318-3.329c2.893-1.575,6.405-4.033,6.449-10.232
	c0.043-6.205-4.064-8.829-6.431-10.026c-2.348-1.202-7.599-2.834-13.857-3.288L106.097,104.423z M102.413,91.821
	c4.612-0.149,9.522-1.171,13.079-3.094c3.557-1.923,5.59-4.987,5.503-9.594c-0.086-4.601-3.129-8.527-8.314-10.163
	c-5.189-1.628-8.672-1.78-12.624-1.863c-3.951-0.084-7.981,0.231-7.981,0.231l-0.179,24.404
	C91.892,91.742,97.804,91.956,102.413,91.821z"/>
<g display="none">
	<path display="inline" fill="#FFFFFF" d="M59.565,43.703l10.659-0.293c13.695-0.383,20.427-0.412,28.084,0.084
		c10.527,0.676,19.261,2.385,26.859,5.613c19.159,8.136,29.053,25.305,28.808,51.954l-0.012,0.454
		c-1.285,25.55-10.497,41.505-27.792,48.816c-7.018,2.959-14.993,4.358-24.707,4.729c-6.899,0.251-12.111,0.09-26.1-0.646
		l-5.35-0.269l-10.443-0.502C59.565,153.638,59.565,43.703,59.565,43.703z M81.498,65.104v67.647
		c20.66,0.962,28.826,0.46,36.143-2.624c8.728-3.688,13.48-11.878,14.401-29.489c0.126-18.071-5.004-26.895-15.459-31.342
		C108.698,65.935,99.593,64.919,81.498,65.104L81.498,65.104z"/>
	<path display="inline" fill="#FFFFFF" d="M43.998,89.148h57.992v20.265H43.998V89.148z"/>
</g>
<g id="Group" transform="translate(11.666667, 9.722222)">
	<polygon id="Path_1_" fill="#FFFFFF" points="87.546,114.525 46.392,90.626 87.546,22.258 128.7,90.626 	"/>
	<polygon id="Path_2_" fill="#FFFFFF" points="87.546,156.341 46.392,97.931 87.546,122.491 128.7,97.931 	"/>
</g>
</svg>
