<?xml version="1.0" encoding="utf-8"?>
<!-- Generator: Adobe Illustrator 17.0.0, SVG Export Plug-In . SVG Version: 6.00 Build 0)  -->
<!DOCTYPE svg PUBLIC "-//W3C//DTD SVG 1.1//EN" "http://www.w3.org/Graphics/SVG/1.1/DTD/svg11.dtd">
<svg version="1.1" id="Слой_1" xmlns="http://www.w3.org/2000/svg" xmlns:xlink="http://www.w3.org/1999/xlink" x="0px" y="0px"
	 width="200px" height="200px" viewBox="0 0 200 200" enable-background="new 0 0 200 200" xml:space="preserve">
<linearGradient id="SVGID_1_" gradientUnits="userSpaceOnUse" x1="374.1062" y1="-284.2803" x2="220.8938" y2="-155.7197" gradientTransform="matrix(1 0 0 -1 -197.5 -120)">
	<stop  offset="3.803839e-04" style="stop-color:#176296"/>
	<stop  offset="1" style="stop-color:#1DA2C8"/>
</linearGradient>
<circle fill="url(#SVGID_1_)" cx="100" cy="100" r="100"/>
<path display="none" fill="#FFFFFF" d="M60.469,158.817V43.147h37.473c14.199,0,23.458,0.573,27.778,1.736
	c6.622,1.743,12.173,5.513,16.646,11.316c4.473,5.819,6.706,13.319,6.706,22.525c0,7.103-1.285,13.075-3.869,17.915
	c-2.577,4.84-5.849,8.64-9.818,11.408c-3.976,2.753-8.013,4.588-12.111,5.482c-5.574,1.109-13.648,1.659-24.223,1.659H83.82v43.629
	H60.469z M83.82,62.713v32.825h12.784c9.206,0,15.353-0.604,18.465-1.812s5.536-3.104,7.294-5.681
	c1.759-2.577,2.646-5.574,2.646-8.999c0-4.205-1.231-7.677-3.701-10.406c-2.47-2.737-5.597-4.45-9.397-5.131
	c-2.783-0.528-8.388-0.795-16.806-0.795L83.82,62.713z"/>
<path display="none" fill="#FFFFFF" d="M141.304,139.061c-7.668,5.265-15.822,6.147-19.433,6.595
	c-1.774,0.226-4.824,0.447-8.096,0.618l-0.148,20.534l-12.641-0.093l0.146-20.204l-9.622-0.07l-0.146,20.204l-12.641-0.093
	l0.146-20.204L54,146.169l2.704-15.168l7.564,0.06c2.538,0.013,3.603-0.217,4.673-1.21c1.068-0.999,1.315-2.533,1.322-3.775
	l0.371-52.303c0.028-3.283-0.229-4.166-1.727-5.859c-1.494-1.7-5.042-1.943-7.034-1.957l-7.308-0.059l0.096-13.121l24.868,0.173
	l0.144-20.264l12.641,0.093L92.17,53.043l9.622,0.07l0.151-20.265l12.641,0.093l-0.148,20.508
	c9.424,0.654,16.426,2.491,22.511,7.068c7.879,5.902,7.394,16.057,7.19,18.483c-0.193,2.416-1.286,7.075-3.432,10.066
	c-2.143,3.004-7.368,5.975-7.368,5.975s6.128,1.35,10.424,4.626c4.284,3.279,7.439,9.029,7.189,17.418
	C150.73,125.48,148.951,133.795,141.304,139.061z M106.097,104.423c-4.76-0.264-9.527-0.297-14.288-0.102l-0.194,27.118
	c0,0,8.385,0.237,14.004-0.134c5.611-0.375,11.407-1.749,14.318-3.329c2.893-1.575,6.405-4.033,6.449-10.232
	c0.043-6.205-4.064-8.829-6.431-10.026c-2.348-1.202-7.599-2.834-13.857-3.288L106.097,104.423z M102.413,91.821
	c4.612-0.149,9.522-1.171,13.079-3.094c3.557-1.923,5.59-4.987,5.503-9.594c-0.086-4.601-3.129-8.527-8.314-10.163
	c-5.189-1.628-8.672-1.78-12.624-1.863c-3.951-0.084-7.981,0.231-7.981,0.231l-0.179,24.404
	C91.892,91.742,97.804,91.956,102.413,91.821z"/>
<g display="none">
	<path display="inline" fill="#FFFFFF" d="M59.565,43.703l10.659-0.293c13.695-0.383,20.427-0.412,28.084,0.084
		c10.527,0.676,19.261,2.385,26.859,5.613c19.159,8.136,29.053,25.305,28.808,51.954l-0.012,0.454
		c-1.285,25.55-10.497,41.505-27.792,48.816c-7.018,2.959-14.993,4.358-24.707,4.729c-6.899,0.251-12.111,0.09-26.1-0.646
		l-5.35-0.269l-10.443-0.502C59.565,153.638,59.565,43.703,59.565,43.703z M81.498,65.104v67.647
		c20.66,0.962,28.826,0.46,36.143-2.624c8.728-3.688,13.48-11.878,14.401-29.489c0.126-18.071-5.004-26.895-15.459-31.342
		C108.698,65.935,99.593,64.919,81.498,65.104L81.498,65.104z"/>
	<path display="inline" fill="#FFFFFF" d="M43.998,89.148h57.992v20.265H43.998V89.148z"/>
</g>
<g id="Group" transform="translate(11.666667, 9.722222)" display="none">
	<polygon id="Path_1_" display="inline" fill="#FFFFFF" points="87.546,114.525 46.392,90.626 87.546,22.258 128.7,90.626 	"/>
	<polygon id="Path_2_" display="inline" fill="#FFFFFF" points="87.546,156.341 46.392,97.931 87.546,122.491 128.7,97.931 	"/>
</g>
<path display="none" fill="#FFFFFF" d="M98.85,105.949l-9.51,32.028h50.818c1.54,0,2.653,1.107,2.653,2.653v0.662l-4.421,15.247
	c-0.414,1.478-1.781,2.479-3.314,2.424H57.319l13.028-44.394l-14.573,4.421l3.314-10.165l14.573-4.421L92,42.103
	c0.408-1.478,1.781-2.486,3.314-2.43h19.656c1.546,0,2.653,1.107,2.653,2.653v0.668l-15.464,52.574l14.58-4.421l-3.092,10.604
	L98.85,105.949z"/>
<g display="none" enable-background="new    ">
	<path display="inline" fill="#FFFFFF" d="M51.407,103.992v19.185c0,1.529,0.644,2.615,1.937,3.242
		c1.288,0.633,3.489,1.148,6.602,1.546c0.93,0.129,1.389,0.801,1.389,1.999c0,0.532-0.067,1.126-0.196,1.792
		c-1.921-0.129-4.317-0.252-7.201-0.347s-6.003-0.146-9.379-0.146c-2.38,0-4.681,0.05-6.899,0.146
		c-2.217,0.101-4.289,0.218-6.204,0.347c-0.134-0.263-0.196-0.566-0.196-0.896s0-0.599,0-0.801c0-1.131,0.358-1.764,1.092-1.904
		c1.389-0.263,2.514-0.515,3.377-0.745c0.857-0.235,1.518-0.504,1.982-0.801c0.465-0.308,0.778-0.666,0.941-1.103
		c0.162-0.426,0.246-0.98,0.246-1.646V73.81c0-1.333-0.476-2.301-1.439-2.901c-0.963-0.599-2.8-1.064-5.51-1.4
		c-0.336-0.134-0.594-0.336-0.795-0.599c-0.196-0.263-0.297-0.728-0.297-1.4c0-0.263,0-0.566,0-0.902
		c0-0.33,0.067-0.599,0.202-0.801c1.853,0.134,3.987,0.246,6.406,0.347c2.413,0.101,4.581,0.151,6.501,0.151h14.99
		c7.084,0,12.605,1.596,16.581,4.793c3.97,3.197,5.952,7.66,5.952,13.389c0,2.598-0.493,5.079-1.49,7.442
		c-0.991,2.363-2.464,4.429-4.418,6.193s-4.317,3.181-7.1,4.25c-2.783,1.058-5.958,1.596-9.531,1.596h-7.543
		C51.407,103.968,51.407,103.992,51.407,103.992z M54.386,98.997c4.037,0,7.296-1.036,9.777-3.097
		c2.481-2.061,3.724-5.56,3.724-10.488c0-4.463-0.98-7.924-2.929-10.387c-1.954-2.464-5.482-3.696-10.572-3.696h-2.979v27.674h2.979
		V98.997z"/>
	<path display="inline" fill="#FFFFFF" d="M149.598,68.227c0.263-0.599,0.694-1.064,1.288-1.4c0.594-0.33,2.049-0.498,4.368-0.498
		c0.532,0,1.305-0.017,2.335-0.05c1.025-0.034,2.133-0.067,3.326-0.101c1.193-0.034,2.385-0.084,3.573-0.151
		c1.193-0.067,2.217-0.134,3.08-0.202c0.129,0.336,0.196,0.666,0.196,0.997c0,0.336,0,0.599,0,0.801
		c0,1.064-0.358,1.702-1.092,1.898c-1.322,0.202-2.363,0.398-3.125,0.599c-0.762,0.202-1.338,0.448-1.742,0.75
		c-0.403,0.302-0.661,0.65-0.795,1.053c-0.129,0.398-0.196,0.862-0.196,1.4c0,0.134,0.045,1.4,0.14,3.797
		c0.106,2.397,0.252,5.365,0.448,8.892s0.398,7.358,0.599,11.491c0.196,4.133,0.392,8.041,0.588,11.737s0.358,6.904,0.498,9.643
		c0.129,2.733,0.235,4.396,0.302,4.995c0,0.666,0.078,1.221,0.246,1.646c0.162,0.437,0.465,0.818,0.89,1.148
		c0.431,0.342,1.047,0.622,1.837,0.851c0.801,0.235,1.82,0.448,3.08,0.644c0.728,0.134,1.086,0.773,1.086,1.904
		c0,0.465-0.067,1.03-0.196,1.697c-2.318-0.129-4.418-0.252-6.3-0.347c-1.893-0.101-4.026-0.146-6.412-0.146
		c-2.184,0-4.519,0.05-7,0.146c-2.475,0.101-4.547,0.218-6.199,0.347c-0.129-0.666-0.196-1.232-0.196-1.697
		c0-0.734,0.112-1.238,0.347-1.501c0.235-0.269,0.448-0.403,0.644-0.403c2.716-0.459,4.469-1.014,5.264-1.641
		c0.79-0.633,1.193-1.618,1.193-2.951c0-0.196-0.056-1.266-0.151-3.192c-0.101-1.938-0.196-4.329-0.297-7.196
		c-0.101-2.861-0.235-5.958-0.398-9.284c-0.168-3.332-0.336-6.462-0.498-9.391s-0.297-5.46-0.392-7.593
		c-0.101-2.128-0.185-3.427-0.252-3.897l-20.355,47.653c-0.33,0.594-0.61,1.047-0.84,1.344s-0.549,0.448-0.941,0.448
		c-0.134,0-0.336,0-0.599,0s-0.459-0.034-0.588-0.101L103.33,76.823c-0.067,0.868-0.151,2.615-0.252,5.247
		c-0.101,2.632-0.23,5.644-0.392,9.038c-0.162,3.399-0.336,6.977-0.498,10.74c-0.168,3.763-0.314,7.246-0.442,10.438
		c-0.134,3.192-0.252,5.88-0.347,8.041c-0.101,2.167-0.151,3.349-0.151,3.55c0,0.599,0.067,1.12,0.202,1.546
		c0.129,0.437,0.398,0.818,0.795,1.148c0.398,0.342,0.997,0.616,1.786,0.851c0.795,0.23,1.887,0.482,3.276,0.745
		c0.728,0.134,1.092,0.773,1.092,1.904c0,0.196-0.022,0.448-0.056,0.75s-0.078,0.616-0.14,0.946
		c-1.792-0.129-3.444-0.252-4.967-0.347c-1.523-0.101-3.046-0.146-4.569-0.146c-1.322,0-2.979,0.05-4.961,0.146
		c-1.982,0.095-3.774,0.218-5.365,0.347c-0.134-0.263-0.202-0.566-0.202-0.896s0-0.599,0-0.801c0-0.734,0.101-1.215,0.297-1.45
		c0.202-0.235,0.465-0.381,0.795-0.454c2.049-0.459,3.539-0.997,4.469-1.596c0.924-0.594,1.456-1.501,1.59-2.693
		c0-0.532,0.067-2.15,0.196-4.844c0.134-2.693,0.297-5.891,0.498-9.587c0.196-3.696,0.398-7.627,0.594-11.787
		c0.196-4.161,0.381-8.024,0.543-11.591c0.168-3.561,0.297-6.54,0.398-8.943c0.101-2.397,0.146-3.662,0.146-3.797
		c0-1.131-0.364-1.949-1.092-2.447c-0.728-0.498-2.318-0.946-4.765-1.35c-0.728-0.067-1.092-0.7-1.092-1.898
		c0-0.202,0-0.465,0-0.801c0-0.33,0.067-0.666,0.202-0.997c0.857,0.067,2.049,0.134,3.573,0.202c1.523,0.067,3.08,0.118,4.665,0.151
		s3.074,0.067,4.463,0.101s2.385,0.05,2.979,0.05c1.193,0,2.117,0.05,2.783,0.146c0.655,0.101,1.187,0.218,1.585,0.347
		c0.392,0.134,0.678,0.336,0.84,0.599c0.162,0.269,0.319,0.538,0.448,0.801l18.462,44.854L149.598,68.227z"/>
</g>
<g>
	<path fill="#FFFFFF" d="M141.742,49.796h17.074l-35.519,36.837c-12.2,12.856-32.511,13.388-45.367,1.188
		c-0.406-0.386-0.803-0.782-1.188-1.188L41.23,49.796h17.068L85.28,77.782c7.728,8.143,20.594,8.478,28.737,0.75
		c0.257-0.244,0.507-0.494,0.75-0.75L141.742,49.796z M58.082,152.236H41.007l35.736-37.067c12.2-12.856,32.511-13.388,45.367-1.188
		c0.406,0.386,0.803,0.782,1.188,1.188l35.736,37.067h-17.068l-27.198-28.215c-7.728-8.143-20.594-8.478-28.737-0.75
		c-0.257,0.244-0.507,0.494-0.75,0.75L58.082,152.236z"/>
</g>
</svg>
