<svg width="78" height="80" fill="none" xmlns="http://www.w3.org/2000/svg"><path d="M3.995 17.245l5.232-1.842.063-.024-5.232 1.842-.063.021m.063-.018l5.233-1.842a4.87 4.87 0 01.475-.12l-5.232 1.841c-.16.034-.32.076-.476.126" fill="#DCA23E"/><path d="M4.533 17.103l5.232-1.842c.125-.023.26-.045.385-.058l-5.232 1.842c-.13.016-.26.034-.385.06" fill="#DCA23E"/><path d="M4.917 17.037l5.232-1.842a4.2 4.2 0 01.343-.023L5.26 17.013c-.114 0-.228 0-.343.021m.343-.018l5.232-1.842h.12L5.38 17.016h-.12z" fill="#DCA23E"/><path d="M5.372 17.014l5.232-1.832h5.178l-5.232 1.832H5.372zM16.587 7.17l5.232-1.842a4.491 4.491 0 00-.592.263c-.47.248-.891.582-1.24.987L14.77 8.42a4.19 4.19 0 011.236-.984c.191-.102.39-.19.593-.263" fill="#DCA23E"/><path d="M14.769 8.42L20 6.578a4.139 4.139 0 00-.31.397l-5.23 1.842c.095-.138.198-.271.309-.397z" fill="#DCA23E"/><path d="M14.447 8.81l5.232-1.842a4.07 4.07 0 00-.213.336l-5.233 1.842c.066-.116.138-.229.213-.337z" fill="#DCA23E"/><path d="M14.233 9.146l5.232-1.842c-.057.1-.111.203-.16.308l-5.233 1.842c.05-.103.104-.205.162-.305" fill="#DCA23E"/><path d="M14.072 9.451l5.232-1.842c-.044.093-.088.19-.127.287l-5.23 1.84a6.84 6.84 0 01.125-.29" fill="#DCA23E"/><path d="M13.948 9.736l5.23-1.842c-.035.092-.068.184-.1.276l-5.232 1.842a2.68 2.68 0 01.102-.263m-.102.268l5.232-1.842c-.028.09-.057.18-.08.263l-5.232 1.842c.023-.09.052-.179.08-.263zm-.08.269l5.232-1.842c-.023.09-.044.176-.062.263l-5.232 1.842a3.88 3.88 0 01.062-.263z" fill="#DCA23E"/><path d="M13.704 10.551l5.232-1.842c-.013.066-.026.132-.036.2 0 .027 0 .053-.013.08l-5.23 1.841v-.079c0-.068.024-.134.037-.2" fill="#DCA23E"/><path d="M13.657 10.83l5.23-1.842a4.563 4.563 0 00-.037.324l-5.232 1.842c0-.109.013-.217.039-.324z" fill="#DCA23E"/><path d="M13.618 11.154l5.232-1.842c0 .108-.018.218-.02.326l-5.233 1.842c0-.11 0-.218.02-.326z" fill="#DCA23E"/><path d="M13.597 11.48l5.232-1.842v.33l-5.232 1.841v-.329z" fill="#DCA23E"/><path d="M13.594 11.809l5.232-1.842c0 .119 0 .232.021.348l-5.232 1.841c0-.115-.018-.231-.02-.347zm.021.347l5.232-1.841c0 .128.026.263.045.381l-5.23 1.842a4.3 4.3 0 01-.047-.38" fill="#DCA23E"/><path d="M13.663 12.535l5.23-1.842c.023.145.051.287.085.43l-5.232 1.841a4.684 4.684 0 01-.083-.431m.082.434l5.232-1.842c.042.178.093.354.153.526l-5.232 1.847a6.177 6.177 0 01-.153-.526m.153.526l5.233-1.828a5.541 5.541 0 001.155 1.941l-5.232 1.842a5.54 5.54 0 01-1.156-1.944" fill="#DCA23E"/><path d="M15.054 15.443l5.232-1.842c.123.135.253.263.39.384l-5.232 1.842a4.89 4.89 0 01-.39-.382" fill="#DCA23E"/><path d="M15.444 15.824l5.232-1.842c.107.093.216.182.33.264l-5.232 1.841a6.649 6.649 0 01-.33-.263zm.33.269l5.23-1.832c.098.074.197.142.3.208l-5.236 1.845a4.7 4.7 0 01-.302-.208" fill="#DCA23E"/><path d="M16.067 16.314l5.233-1.842c.09.058.184.113.277.166l-5.232 1.841a5.935 5.935 0 01-.277-.165z" fill="#DCA23E"/><path d="M16.353 16.466l5.232-1.842c.089.048.18.092.26.135L16.613 16.6a2.681 2.681 0 01-.26-.134zm.27.134l5.233-1.841c.088.042.176.079.26.115l-5.233 1.842a2.986 2.986 0 01-.26-.116zm.268.116l5.232-1.842c.086.035.174.063.26.092l-5.232 1.842a5.009 5.009 0 01-.26-.092zm.265.092l5.232-1.842c.086.03.174.053.26.077l-5.232 1.842a3.097 3.097 0 01-.26-.077zm.265.077l5.232-1.842c.088.023.18.042.26.058l-5.232 1.841a2.995 2.995 0 01-.26-.057zm.27.057l5.232-1.841c.091.018.185.031.278.042l-5.232 1.842c-.093 0-.187-.024-.278-.043z" fill="#DCA23E"/><path d="M17.97 16.985l5.231-1.842c.096 0 .195.02.294.026l-5.232 1.842a2.723 2.723 0 01-.294-.024" fill="#DCA23E"/><path d="M18.263 17.008l5.232-1.842h.2l-5.232 1.842h-.2zM14.922 2.297L20.154.455l.153-.052-5.232 1.841-.153.053zm.153-.053L20.307.403a8.3 8.3 0 01.956-.24l-5.232 1.842c-.32.065-.635.148-.945.25" fill="#DCA23E"/><path d="M16.02 1.994l5.243-1.83c.26-.05.502-.09.756-.117L16.787 1.89a7.81 7.81 0 00-.756.116" fill="#DCA23E"/><path d="M16.777 1.879L22.009.037c.22-.013.441-.037.662-.037L17.44 1.842c-.22 0-.442.02-.662.045" fill="#DCA23E"/><path d="M17.44 1.842L22.67 0h.608l-5.232 1.842h-.608zm.607 0L23.279 0c.19 0 .382.026.572.047L18.619 1.89c-.19-.02-.382-.047-.572-.047zm.572.048L23.86.057c.184.024.366.05.548.084l-5.232 1.842a7.659 7.659 0 00-.548-.084" fill="#DCA23E"/><path d="M19.167 1.973L24.399.132c.179.031.356.07.535.115l-5.23 1.842a7.779 7.779 0 00-.535-.116m.535.117l5.23-1.827c.174.045.35.095.52.15l-5.23 1.826a10.374 10.374 0 00-.52-.15z" fill="#DCA23E"/><path d="M20.224 2.24L25.456.396c.177.058.35.119.52.187l-5.232 1.842a9.574 9.574 0 00-.52-.187z" fill="#DCA23E"/><path d="M20.744 2.426l5.23-1.842c.178.069.355.145.519.226L21.26 2.652a13.527 13.527 0 00-.52-.226m.544.226L26.516.81c.182.085.364.177.543.264l-5.232 1.841a5.411 5.411 0 00-.543-.263zm.543.274l5.232-1.842c.192.103.382.216.569.334L22.396 3.26a8.933 8.933 0 00-.57-.334z" fill="#DCA23E"/><path d="M22.396 3.26l5.232-1.842c.205.132.41.263.61.421l-5.232 1.845c-.2-.148-.402-.287-.61-.419" fill="#DCA23E"/><path d="M23.006 3.684l5.232-1.842c.232.17.457.355.68.55l-5.231 1.842c-.224-.195-.45-.38-.68-.553" fill="#DCA23E"/><path d="M23.687 4.231l5.232-1.842c.088.08.18.16.26.245l-5.224 1.84c-.089-.085-.18-.167-.26-.246m-5.232 12.786l5.232-1.832h10.944l-5.232 1.832H18.463zm5.492-12.538l5.232-1.832 6.933 6.534-5.232 1.831-6.933-6.533z" fill="#DCA23E"/><path d="M33.845 8.851l5.23-1.841.108-.037-5.232 1.842-.106.036z" fill="#DCA23E"/><path d="M33.951 8.815l5.232-1.842c.231-.076.466-.138.704-.187l-5.232 1.842a6.296 6.296 0 00-.704.187zm.704-.187l5.232-1.842c.187-.037.38-.066.572-.087l-5.232 1.842a5.87 5.87 0 00-.572.087z" fill="#DCA23E"/><path d="M35.227 8.541l5.232-1.842c.168-.018.34-.029.52-.034l-5.233 1.842c-.171 0-.343.016-.52.034z" fill="#DCA23E"/><path d="M35.738 8.507l5.233-1.842h.478l-5.233 1.842h-.478zm.479.005l5.232-1.842c.148 0 .296.019.441.037l-5.232 1.842a6.119 6.119 0 00-.441-.037z" fill="#DCA23E"/><path d="M36.658 8.549l5.232-1.842c.143.016.283.04.423.063l-5.229 1.842a5.735 5.735 0 00-.426-.063z" fill="#DCA23E"/><path d="M37.084 8.612l5.23-1.842c.14.026.275.055.413.09L37.495 8.7a5.616 5.616 0 00-.41-.089z" fill="#DCA23E"/><path d="M37.495 8.701l5.232-1.841c.135.034.26.073.402.115l-5.232 1.842a5.598 5.598 0 00-.402-.116z" fill="#DCA23E"/><path d="M37.89 8.817l5.231-1.842c.136.045.26.092.4.142L38.293 8.96c-.132-.052-.26-.1-.403-.142zm.41.143l5.23-1.842c.136.052.271.11.405.173l-5.232 1.842a4.652 4.652 0 00-.403-.174z" fill="#DCA23E"/><path d="M38.703 9.133l5.232-1.842c.14.063.278.134.413.208l-5.232 1.842a6.041 6.041 0 00-.413-.205" fill="#DCA23E"/><path d="M39.116 9.338l5.232-1.842c.145.08.288.167.428.263l-5.232 1.842-.428-.263z" fill="#DCA23E"/><path d="M39.544 9.59l5.232-1.841c.156.097.307.203.455.313l-5.23 1.842a8.822 8.822 0 00-.457-.316m.458.319l5.229-1.842c.174.126.34.263.501.405l-5.23 1.842a8.067 8.067 0 00-.5-.405zm.501.405l5.23-1.842c.211.186.413.384.605.592l-5.232 1.842a8.035 8.035 0 00-.603-.592zm.603.592l5.232-1.842.085.095-5.232 1.842-.085-.095zm2.208 5.262l5.23-1.831.049.847-5.233 1.832-.046-.848zm-.008-.092l5.232-1.842v.03l-5.232 1.841v-.029z" fill="#DCA23E"/><path d="M43.306 16.103l5.232-1.842v.035l-5.232 1.841v-.034zm.005.034l5.232-1.841v.029l-5.232 1.841v-.029zm.049.877l5.232-1.832h10.709l-5.232 1.832H43.36z" fill="#DCA23E"/><path d="M54.069 17.014l5.232-1.842h.117l-5.232 1.842h-.117z" fill="#DCA23E"/><path d="M54.186 17.014l5.232-1.842c.122 0 .241 0 .36-.024L54.55 16.99c-.12 0-.241.018-.363.024z" fill="#DCA23E"/><path d="M54.55 16.99l5.229-1.842a4.24 4.24 0 00.413-.066l-5.232 1.842c-.135.03-.273.05-.41.066z" fill="#DCA23E"/><path d="M54.96 16.924l5.232-1.842c.168-.034.335-.078.499-.131l-5.232 1.841c-.164.054-.33.098-.5.132z" fill="#DCA23E"/><path d="M55.459 16.793l5.231-1.842.081-.027-5.232 1.842-.08.03m-3.022-9.621l5.233-1.841a4.62 4.62 0 00-1.819 1.191l-7.31 7.718-5.232 1.842c1.68-1.774 5.328-5.62 7.31-7.707a4.595 4.595 0 011.818-1.192m-1.709-4.905L55.96.44l.143-.047-5.224 1.84-.143.05" fill="#DCA23E"/><path d="M50.879 2.231L56.11.403a7.4 7.4 0 01.912-.242l-5.23 1.841c-.31.062-.614.142-.914.24" fill="#DCA23E"/><path d="M51.785 1.992L57.015.15a8.67 8.67 0 01.74-.116l-5.232 1.842c-.26.026-.496.066-.738.116z" fill="#DCA23E"/><path d="M52.523 1.876L57.755.034c.218-.01.437-.034.657-.034L53.18 1.842c-.22 0-.439.018-.657.042m.657-.042L58.413 0h.61l-5.232 1.842h-.611z" fill="#DCA23E"/><path d="M53.79 1.842L59.024 0c.192 0 .384.016.576.047L54.368 1.89a3.553 3.553 0 00-.577-.047z" fill="#DCA23E"/><path d="M54.368 1.89L59.6.046c.187.021.374.05.56.085l-5.23 1.842a8.257 8.257 0 00-.561-.084z" fill="#DCA23E"/><path d="M54.929 1.973L60.16.132c.184.034.366.073.55.12l-5.23 1.854a8.25 8.25 0 00-.551-.121" fill="#DCA23E"/><path d="M55.48 2.105L60.71.263c.182.045.364.098.549.155L56.028 2.26a8.545 8.545 0 00-.549-.155z" fill="#DCA23E"/><path d="M56.028 2.25L61.26.408c.184.06.369.124.55.197l-5.232 1.842a10.547 10.547 0 00-.55-.195" fill="#DCA23E"/><path d="M56.578 2.444L61.81.616c.19.07.377.152.564.24l-5.232 1.841a9.575 9.575 0 00-.564-.242" fill="#DCA23E"/><path d="M57.142 2.686L62.374.845l.075.034c.172.081.338.166.502.263l-5.232 1.842c-.164-.09-.33-.174-.499-.263l-.078-.035z" fill="#DCA23E"/><path d="M57.719 2.976l5.232-1.842c.2.108.395.224.584.345L58.303 3.32a9.267 9.267 0 00-.584-.345z" fill="#DCA23E"/><path d="M58.303 3.32l5.232-1.841c.208.131.414.263.61.42l-5.229 1.843a8.73 8.73 0 00-.613-.421zm.613.422l5.23-1.842c.228.168.452.347.665.526l-5.232 1.842a7.538 7.538 0 00-.663-.526zm.663.536l5.232-1.841c.272.241.532.497.78.765l-5.233 1.842a10.069 10.069 0 00-.78-.766z" fill="#DCA23E"/><path d="M60.358 5.044l5.232-1.842a10.891 10.891 0 012.266 3.829l-5.232 1.841a10.87 10.87 0 00-2.266-3.828z" fill="#DCA23E"/><path d="M62.623 8.873l5.233-1.842c.122.357.228.723.316 1.097L62.94 9.97a11.065 11.065 0 00-.317-1.098zm.317 1.097l5.233-1.842c.067.29.124.581.171.879l-5.232 1.841a12.052 12.052 0 00-.172-.878zm.172.879l5.232-1.842c.039.263.073.526.094.79l-5.23 1.84a11.669 11.669 0 00-.096-.788z" fill="#DCA23E"/><path d="M63.208 11.633l5.23-1.842c.02.242.036.487.041.731l-5.232 1.842c0-.245-.018-.49-.039-.731z" fill="#DCA23E"/><path d="M63.247 12.367l5.232-1.842v.702l-5.235 1.837v-.7" fill="#DCA23E"/><path d="M63.244 13.064l5.232-1.829c0 .171-.018.34-.033.506l-5.23 1.841c.014-.175.024-.343.031-.505v-.013zm-.031.518l5.23-1.841a6.464 6.464 0 01-.06.502l-5.23 1.842c.024-.166.045-.334.06-.503zm-.059.503l5.229-1.842a8.027 8.027 0 01-.086.5l-5.232 1.842c.034-.166.063-.332.089-.5z" fill="#DCA23E"/><path d="M63.065 14.585l5.232-1.842c-.036.171-.075.34-.12.508l-5.231 1.842c.044-.169.083-.337.12-.508zm-.119.508l5.232-1.842c-.047.175-.099.35-.156.526L62.79 15.62c.057-.175.109-.35.156-.526z" fill="#DCA23E"/><path d="M62.79 15.614l5.232-1.842a9.02 9.02 0 01-.198.544l-5.232 1.842c.073-.179.138-.36.198-.544z" fill="#DCA23E"/><path d="M62.592 16.158l5.232-1.842a6.06 6.06 0 01-.26.58l-5.231 1.841c.09-.187.174-.381.26-.576" fill="#DCA23E"/><path d="M62.34 16.735l5.232-1.842c-.046.092-.09.184-.14.276L62.2 17.011c.05-.092.096-.184.14-.279m-.137.282l5.23-1.832h5.19l-5.233 1.832h-5.187zm10.562 12.769l5.23-1.842v.09l-5.232 1.841v-.089m.005.089L78 28.031v.165l-5.232 1.842v-.166zm0 .166L78 28.196v.156l-5.232 1.841v-.155z" fill="#DCA23E"/><path d="M72.758 30.193l5.232-1.841c0 .05 0 .1-.018.147L72.74 30.34c0-.048.013-.098.018-.148zm-.018.147l5.23-1.84c0 .05-.015.1-.026.147l-5.232 1.842c0-.05.019-.097.026-.147z" fill="#DCA23E"/><path d="M72.713 30.488l5.233-1.842c0 .048-.021.098-.034.145l-5.232 1.842c.013-.047.023-.098.033-.145zm-.033.145l5.232-1.842a2.929 2.929 0 01-.042.142l-5.232 1.842c.016-.047.029-.095.042-.142zm-.042.152l5.232-1.841c-.018.05-.034.1-.054.147l-5.233 1.842c.021-.048.04-.097.055-.148z" fill="#DCA23E"/><path d="M72.584 30.922l5.232-1.842c-.021.05-.042.103-.065.15l-5.232 1.842c.023-.05.044-.1.064-.15z" fill="#DCA23E"/><path d="M72.519 31.072l5.232-1.842a3.111 3.111 0 01-.083.16l-5.233 1.843c.03-.05.058-.103.084-.158" fill="#DCA23E"/><path d="M72.44 31.23l5.233-1.842c-.034.058-.07.116-.11.171l-5.231 1.842a2.21 2.21 0 00.109-.174m-.115.177l5.232-1.842c-.049.068-.1.137-.155.2l-5.222 1.84a2.42 2.42 0 00.156-.198" fill="#DCA23E"/><path d="M72.18 31.601l5.233-1.828c-.243.28-.554.492-.902.615l-5.229 1.842c.348-.127.658-.344.899-.629zm.152-9.481l5.232-1.83.43 7.662-5.229 1.83-.433-7.661zm-4.942-5.106l5.232-1.842h.208l-5.232 1.841h-.208zm.208.005l5.232-1.842c.102 0 .2.013.3.026l-5.233 1.842c-.099 0-.197-.021-.299-.026z" fill="#DCA23E"/><path d="M67.897 17.045l5.232-1.842c.096 0 .19.024.286.042l-5.232 1.842a3.567 3.567 0 00-.286-.042z" fill="#DCA23E"/><path d="M68.183 17.087l5.232-1.842c.09.019.182.037.273.06l-5.233 1.843a3.41 3.41 0 00-.272-.06zm.272.061l5.233-1.842c.09.02.181.047.26.076l-5.233 1.842a4.436 4.436 0 00-.26-.076zm.271.076l5.232-1.842c.09.029.181.06.26.095l-5.233 1.842c-.088-.034-.179-.066-.26-.095zm.27.095l5.232-1.842c.091.037.18.073.26.116l-5.232 1.841c-.089-.042-.177-.079-.26-.115zm.267.115l5.233-1.841c.093.042.184.09.275.136l-5.232 1.842a3.81 3.81 0 00-.276-.137z" fill="#DCA23E"/><path d="M69.539 17.571l5.232-1.842c.096.053.192.111.286.169l-5.232 1.842a6.233 6.233 0 00-.286-.169z" fill="#DCA23E"/><path d="M69.825 17.74l5.231-1.842c.104.066.206.137.305.21l-5.233 1.842a4.82 4.82 0 00-.303-.21zm.304.21l5.232-1.842c.114.085.223.174.33.264l-5.23 1.841a3.841 3.841 0 00-.332-.263zm.332.269l5.23-1.842c.142.126.278.26.407.4l-5.232 1.842a5.327 5.327 0 00-.405-.4z" fill="#DCA23E"/><path d="M70.867 18.619l5.231-1.842a5.637 5.637 0 011.164 1.963l-5.232 1.84a5.638 5.638 0 00-1.163-1.962z" fill="#DCA23E"/><path d="M72.03 20.581l5.232-1.841c.06.175.113.357.156.544l-5.232 1.842a5.263 5.263 0 00-.156-.545z" fill="#DCA23E"/><path d="M72.18 21.126l5.233-1.842c.034.142.062.29.086.437l-5.232 1.842a5.842 5.842 0 00-.086-.437zm.092.45l5.232-1.842c.02.127.036.263.046.384l-5.23 1.842c0-.131-.026-.263-.047-.384z" fill="#DCA23E"/><path d="M72.319 21.947l5.232-1.842c0 .058 0 .116.013.177l-5.232 1.828c0-.058 0-.116-.013-.173M32.883 37.442l5.232-1.83 2.4 42.557L35.285 80l-2.4-42.558zm-26.357 0l5.232-1.83h26.357l-5.232 1.83H6.526zm64.133 37.451l5.232-1.842v.179l-5.232 1.842v-.18z" fill="#DCA23E"/><path d="M70.666 75.072l5.232-1.842v.331l-5.232 1.829v-.329m-.002.339l5.232-1.828c0 .102 0 .208-.018.31l-5.232 1.842c0-.102.015-.208.018-.313" fill="#DCA23E"/><path d="M70.646 75.714l5.232-1.842c0 .1-.024.2-.037.3l-5.219 1.839c.016-.097.026-.197.037-.297m-.037.297l5.232-1.829a4.15 4.15 0 01-.052.292l-5.232 1.842c.021-.097.037-.194.052-.294" fill="#DCA23E"/><path d="M70.557 76.306l5.232-1.842a5.73 5.73 0 01-.067.29l-5.232 1.828c.026-.095.049-.19.067-.287m-.067.298l5.232-1.83a5.995 5.995 0 01-.086.288l-5.232 1.828c.031-.092.06-.19.086-.287z" fill="#DCA23E"/><path d="M70.404 76.88l5.232-1.83a3.5 3.5 0 01-.106.293l-5.233 1.842a3.23 3.23 0 00.107-.295" fill="#DCA23E"/><path d="M70.297 77.174l5.233-1.842a5.384 5.384 0 01-.133.303l-5.232 1.842c.047-.098.09-.2.132-.303z" fill="#DCA23E"/><path d="M70.165 77.477l5.232-1.842c-.052.11-.106.215-.166.318l-5.232 1.842c.06-.103.114-.21.166-.318z" fill="#DCA23E"/><path d="M69.999 77.795l5.232-1.842a4.22 4.22 0 01-.218.342l-5.23 1.842c.075-.11.148-.224.216-.342zm-.216.352l5.23-1.841a4.66 4.66 0 01-.31.4l-5.232 1.841c.11-.126.213-.263.312-.4z" fill="#DCA23E"/><path d="M69.471 78.537l5.232-1.842a4.25 4.25 0 01-1.8 1.232l-5.232 1.841a4.25 4.25 0 001.8-1.23zm-.927-41.095l5.232-1.83 2.115 37.45-5.232 1.83-2.115-37.45zm-26.358 0l5.232-1.83h26.358l-5.232 1.83H42.186z" fill="#DCA23E"/><path d="M67.39 17.014c2.572 0 4.783 2.286 4.936 5.107l.434 7.662c.078 1.41-.899 2.552-2.182 2.552H3.912c-1.283 0-2.39-1.142-2.47-2.552L1 22.121c-.159-2.82 1.795-5.107 4.364-5.107h5.186a10.171 10.171 0 01-1.497-3.934c-.667-4.515 1.27-8.562 4.856-10.357a8.306 8.306 0 013.738-.881c2.229 0 4.46.895 6.308 2.631l6.933 6.534a6.34 6.34 0 012.219-1.845 6.252 6.252 0 012.795-.66 7.087 7.087 0 012.907.677 7.172 7.172 0 012.382 1.817l6.188-6.523a8.255 8.255 0 012.736-1.945 8.164 8.164 0 013.273-.686 8.95 8.95 0 013.832.89c3.79 1.783 6.18 5.83 6.024 10.345a9.227 9.227 0 01-1.039 3.947l5.185-.01zm-38.032-.85v-.077L21.045 8.26a4.538 4.538 0 00-3.118-1.316 4.176 4.176 0 00-1.945.49 4.523 4.523 0 00-1.557 1.381 4.595 4.595 0 00-.781 1.942c-.536 3.304 1.906 6.262 4.795 6.262h10.945l-.05-.85.024-.005zm29.23-3.766c.024-2.476-1.392-4.541-3.636-5.262a3.787 3.787 0 00-1.185-.187c-.592.01-1.176.14-1.717.384a4.397 4.397 0 00-1.431 1.034c-1.982 2.087-5.63 5.934-7.31 7.707v.092l.049.848h10.708a4.481 4.481 0 001.737-.355 4.53 4.53 0 001.47-1.002 4.641 4.641 0 001.314-3.258" fill="url(#paint0_linear)"/><path d="M32.883 37.443l2.408 42.547H13.58c-2.57 0-4.78-2.287-4.936-5.108l-2.117-37.44h26.357z" fill="url(#paint1_linear)"/><path d="M68.544 37.443l2.115 37.45c.158 2.82-1.796 5.107-4.365 5.107H44.59l-2.403-42.557h26.358z" fill="url(#paint2_linear)"/><defs><linearGradient id="paint0_linear" x1=".991" y1="1.842" x2="12.859" y2="42.216" gradientUnits="userSpaceOnUse"><stop stop-color="#FFD380"/><stop offset="1" stop-color="#FFBD3F"/></linearGradient><linearGradient id="paint1_linear" x1="6.526" y1="37.443" x2="37.118" y2="67.336" gradientUnits="userSpaceOnUse"><stop stop-color="#FFD380"/><stop offset="1" stop-color="#FFBD3F"/></linearGradient><linearGradient id="paint2_linear" x1="42.186" y1="37.443" x2="72.777" y2="67.032" gradientUnits="userSpaceOnUse"><stop stop-color="#FFD380"/><stop offset="1" stop-color="#FFBD3F"/></linearGradient></defs></svg>