<svg width="88" height="73" fill="none" xmlns="http://www.w3.org/2000/svg"><path d="M7.73 2.537L13.498.542 13.65.49 7.876 2.486l-.152.051" fill="#9F9F9F"/><path d="M7.876 2.486L13.644.49c.376-.122.758-.223 1.146-.302L9.02 2.184c-.387.079-.77.18-1.145.302zm1.145-.302L14.801.2c.307-.06.619-.109.934-.143L9.967 2.053c-.315.034-.628.083-.934.142" fill="#9F9F9F"/><path d="M9.967 2.041L15.735.057c.286-.029.55-.046.83-.054l-5.768 1.993c-.286 0-.556.025-.83.054" fill="#9F9F9F"/><path d="M10.797 1.996L16.566 0h.272l-5.769 1.996h-.272zm47.487 32.665l5.768-1.996c-.338.119-.64.32-.876.588l-5.766 1.995c.231-.266.527-.468.86-.587m-.845.588l5.765-1.996a3.264 3.264 0 00-.149.19l-5.768 1.997c.047-.067.098-.13.151-.191z" fill="#9F9F9F"/><path d="M57.27 35.44l5.768-1.996a1.47 1.47 0 00-.106.165l-5.768 1.996c.031-.057.069-.111.106-.165z" fill="#9F9F9F"/><path d="M57.164 35.605l5.768-1.996c-.029.049-.057.1-.083.151l-5.768 1.996a2.43 2.43 0 01.083-.151z" fill="#9F9F9F"/><path d="M57.08 35.756l5.77-1.996a2.313 2.313 0 00-.064.146L57.018 35.9c.02-.048.04-.097.063-.145zm-.062.145l5.768-1.995a1.14 1.14 0 00-.051.142l-5.769 1.996c.015-.048.032-.094.052-.14" fill="#9F9F9F"/><path d="M56.966 36.041l5.769-1.996c-.018.043-.03.091-.043.137l-5.769 1.996c.015-.048.026-.094.043-.14m-.043.142l5.769-1.995c0 .046-.023.091-.032.137l-5.768 1.996c0-.046.02-.092.031-.137z" fill="#9F9F9F"/><path d="M56.892 36.318l5.768-1.996c-.011.047-.02.094-.026.142l-5.768 1.996c.006-.047.014-.093.026-.14" fill="#9F9F9F"/><path d="M56.866 36.457l5.768-1.996a1.14 1.14 0 00-.017.143L56.85 36.6c.003-.049.009-.098.017-.146m-.015.149l5.768-1.996c-.003.05-.003.099 0 .148l-5.768 1.996a1.223 1.223 0 010-.148z" fill="#9F9F9F"/><path d="M56.852 36.751l5.768-1.996v.157l-5.768 1.996v-.157zm0 .157l5.768-1.996v.171l-5.768 1.996v-.171zm0 .171l5.768-1.996c0 .063 0 .123.023.183l-5.768 1.995c0-.06-.017-.122-.023-.182z" fill="#9F9F9F"/><path d="M56.872 37.261l5.768-1.995c.009.07.022.14.04.208l-5.768 1.995a2.399 2.399 0 01-.04-.208z" fill="#9F9F9F"/><path d="M56.912 37.47l5.768-1.996c.02.089.046.176.078.262l-5.769 1.996a3.431 3.431 0 01-.077-.26" fill="#9F9F9F"/><path d="M56.99 37.729l5.768-1.996c.122.35.317.669.572.938l-5.768 1.996a2.667 2.667 0 01-.573-.94m.567.943l5.768-1.996a2.1 2.1 0 00.198.191l-5.768 1.996a2.459 2.459 0 01-.198-.191z" fill="#9F9F9F"/><path d="M57.754 38.86l5.768-1.995c.052.046.106.088.16.128l-5.768 1.996a2.27 2.27 0 01-.16-.128zm.16.13l5.769-1.997c.048.037.097.069.146.1l-5.766 1.996c-.051-.032-.1-.066-.149-.1z" fill="#9F9F9F"/><path d="M58.063 39.089l5.765-1.996.14.083-5.768 1.981c-.045-.022-.091-.051-.137-.08m.137.092l5.769-1.982.135.066-5.769 1.996-.134-.069" fill="#9F9F9F"/><path d="M58.335 39.237l5.769-1.996.129.054-5.766 1.996-.132-.054z" fill="#9F9F9F"/><path d="M58.467 39.291l5.766-1.995.131.045-5.768 1.996-.129-.046zm.129.055l5.768-1.996.132.037-5.768 1.996-.132-.038z" fill="#9F9F9F"/><path d="M58.728 39.374l5.768-1.996.132.029-5.766 1.996-.134-.029z" fill="#9F9F9F"/><path d="M58.857 39.403l5.765-1.996.14.02-5.768 1.995-.137-.02zm.143.019l5.768-1.995h.146l-5.768 1.995H59zm.143.012l5.768-1.996h.1l-5.768 1.996h-.1zm-4.079-14.102l5.769-1.995a10.362 10.362 0 00-4.385 2.95l-5.769 1.996a10.362 10.362 0 014.385-2.95zm-4.384 2.951l5.768-1.995c-.271.304-.525.624-.76.957l-5.768 1.996c.236-.332.49-.65.76-.955" fill="#9F9F9F"/><path d="M49.92 29.238l5.769-1.995c-.186.265-.364.539-.527.82l-5.768 1.997c.163-.285.34-.57.526-.824m-.515.826l5.768-1.995a8.834 8.834 0 00-.406.76l-5.769 1.997c.126-.26.26-.514.407-.762z" fill="#9F9F9F"/><path d="M48.986 30.823l5.769-1.995c-.115.236-.224.479-.324.724l-5.768 1.996c.1-.248.209-.488.324-.724zm-.323.725l5.769-1.996c-.095.23-.18.465-.261.704l-5.768 1.996c.08-.24.166-.473.26-.704z" fill="#9F9F9F"/><path d="M48.402 32.252l5.768-1.996c-.074.226-.143.454-.206.687l-5.768 1.996c.063-.234.132-.462.206-.687z" fill="#9F9F9F"/><path d="M48.196 32.94l5.768-1.997c-.063.226-.117.456-.166.69L48.03 33.63c.049-.234.106-.465.166-.69zm-.166.703l5.768-1.995c-.046.228-.089.461-.123.698l-5.768 1.996c.034-.237.077-.47.123-.699z" fill="#9F9F9F"/><path d="M47.907 34.328l5.768-1.996a9.679 9.679 0 00-.086.713l-5.768 1.995c.02-.24.049-.479.086-.712z" fill="#9F9F9F"/><path d="M47.82 35.04l5.77-1.995c-.024.245-.04.493-.05.741l-5.768 1.996c0-.248.026-.496.049-.741z" fill="#9F9F9F"/><path d="M47.772 35.782l5.769-1.996v.787l-5.769 1.996v-.787z" fill="#9F9F9F"/><path d="M47.77 36.569l5.768-1.996c0 .142.006.285.017.428 0 .14.02.285.032.416l-5.769 1.996c0-.14-.023-.285-.031-.42-.009-.134 0-.285-.017-.424z" fill="#9F9F9F"/><path d="M47.818 37.413l5.768-1.996c.026.308.066.613.112.915l-5.768 1.996a16.033 16.033 0 01-.112-.916z" fill="#9F9F9F"/><path d="M47.93 38.328l5.768-1.996c.057.35.126.699.21 1.04l-5.769 1.996c-.083-.342-.152-.69-.21-1.04zm.209 1.04l5.768-1.995c.106.442.235.875.381 1.3l-5.768 1.996a11.13 11.13 0 01-.381-1.3z" fill="#9F9F9F"/><path d="M48.52 40.669l5.768-1.996a13.447 13.447 0 002.836 4.701l-5.769 1.996a13.472 13.472 0 01-2.835-4.701z" fill="#9F9F9F"/><path d="M51.355 45.37l5.769-1.996c.313.336.643.654.99.955l-5.768 1.996c-.347-.3-.678-.62-.99-.955zm.991.955l5.769-1.996c.26.228.532.442.81.645l-5.768 1.995a10.407 10.407 0 01-.81-.644z" fill="#9F9F9F"/><path d="M53.157 46.97l5.768-1.996c.24.177.487.345.739.502l-5.768 1.995a11.565 11.565 0 01-.74-.502z" fill="#9F9F9F"/><path d="M53.896 47.471l5.768-1.995c.226.142.461.285.696.404l-5.765 1.996a13.1 13.1 0 01-.7-.405z" fill="#9F9F9F"/><path d="M54.595 47.876l5.765-1.996c.22.117.444.228.67.331l-5.768 1.996c-.226-.103-.45-.214-.667-.33z" fill="#9F9F9F"/><path d="M55.262 48.207l5.768-1.996c.216.097.434.192.653.285l-5.768 1.996a8.923 8.923 0 01-.653-.285z" fill="#9F9F9F"/><path d="M55.915 48.47l5.768-1.997c.215.083.433.157.653.229l-5.768 1.995a10.06 10.06 0 01-.653-.225m.65.234l5.768-1.996c.218.066.436.128.656.183l-5.768 1.995a11.05 11.05 0 01-.656-.185m.659.188l5.768-1.996c.22.055.444.103.667.143l-5.768 1.996a10.73 10.73 0 01-.667-.143zm.667.149l5.768-1.996c.23.043.459.077.69.102l-5.768 1.996a9.312 9.312 0 01-.69-.103z" fill="#9F9F9F"/><path d="M58.57 49.136l5.768-1.995c.24.028.482.048.725.06l-5.768 1.995c-.244 0-.484-.031-.725-.06zm.736.06l5.768-1.995h.499l-5.766 1.995h-.501zm-2.623-19.199l5.765-1.982.092-.031-5.769 1.996-.088.028" fill="#9F9F9F"/><path d="M56.772 29.968l5.768-1.995c.226-.074.457-.135.69-.183l-5.765 1.996a6.181 6.181 0 00-.694.182z" fill="#9F9F9F"/><path d="M57.465 29.786l5.765-1.996c.186-.037.372-.066.573-.085L58.035 29.7a5.948 5.948 0 00-.573.086" fill="#9F9F9F"/><path d="M58.023 29.7l5.768-1.996a5.68 5.68 0 01.499-.031l-5.769 1.996c-.168 0-.335 0-.498.031z" fill="#9F9F9F"/><path d="M58.522 29.669l5.768-1.996h.163l-5.768 1.996h-.163zm.724 9.768l5.768-1.985h3.02l-5.77 1.985h-3.018z" fill="#9F9F9F"/><path d="M62.265 39.437l5.768-1.996h.055l-5.769 1.996h-.054z" fill="#9F9F9F"/><path d="M62.32 39.437l5.768-1.996h.166l-5.769 1.996h-.166z" fill="#9F9F9F"/><path d="M62.485 39.425l5.769-1.995c.063 0 .123-.017.186-.029l-5.768 1.996-.187.029z" fill="#9F9F9F"/><path d="M62.671 39.397l5.769-1.996c.077-.017.154-.037.229-.06L62.9 39.337a3.005 3.005 0 01-.23.06zm.229-.051l5.769-1.996h.031l-5.768 1.995h-.031zm18.64 20.445l5.768-1.996.017.425-5.768 1.996c0-.143 0-.285-.017-.425zm.017.425l5.768-1.996v.787l-5.768 1.996v-.787zm-.003.798l5.769-1.996c0 .248-.026.496-.05.742l-5.767 1.995c.022-.245.04-.493.048-.74z" fill="#9F9F9F"/><path d="M81.506 61.744l5.768-1.996c-.023.24-.052.476-.086.713l-5.768 1.996c.037-.237.066-.473.086-.713z" fill="#9F9F9F"/><path d="M81.42 62.457l5.768-1.996c-.035.237-.078.468-.123.699l-5.769 1.995c.046-.23.09-.464.123-.698zm-.124.698l5.769-1.995c-.049.233-.106.461-.166.69l-5.769 1.995c.06-.228.118-.459.166-.69z" fill="#9F9F9F"/><path d="M81.13 63.845l5.77-1.995c-.063.23-.132.461-.206.687l-5.769 1.995c.075-.226.143-.454.206-.684" fill="#9F9F9F"/><path d="M80.924 64.53l5.768-1.996c-.08.236-.166.473-.26.701l-5.768 1.996c.094-.231.18-.465.26-.704m-.261.707l5.769-1.996c-.1.248-.21.49-.324.724l-5.768 1.996c.114-.237.223-.476.323-.724z" fill="#9F9F9F"/><path d="M80.337 65.958l5.768-1.996c-.126.26-.26.513-.406.761L79.93 66.72c.146-.248.287-.502.407-.761z" fill="#9F9F9F"/><path d="M79.933 66.716l5.768-1.995c-.163.285-.34.57-.526.824l-5.769 1.995c.186-.265.364-.541.527-.824zm-.527.827l5.768-1.996a11.05 11.05 0 01-.759.956l-5.768 1.995c.27-.304.524-.623.76-.955z" fill="#9F9F9F"/><path d="M78.647 68.498l5.768-1.996a10.361 10.361 0 01-4.385 2.951l-5.768 1.996a10.36 10.36 0 004.385-2.95zm2.283-19.29l5.768-1.985.61 10.584-5.768 1.984-.61-10.583z" fill="#9F9F9F"/><path d="M59.808 49.208l5.768-1.985h21.123l-5.769 1.985H59.808zM11.07 1.984L16.837 0H72.67l-5.768 1.984H11.069zm68.743 27.682l5.766-1.985.842 14.655-5.769 1.985-.839-14.655z" fill="#9F9F9F"/><path d="M58.685 29.666l5.768-1.985h21.125l-5.765 1.985H58.685zm20.237-15.47l5.766-1.985.61 10.584-5.769 1.984-.607-10.583z" fill="#9F9F9F"/><path d="M58.685 29.666h21.128l.84 14.655H59.526c-3.746 0-6.98-3.288-7.212-7.328-.232-4.04 2.626-7.327 6.37-7.327zm3.58 9.77c1.248 0 2.2-1.094 2.122-2.443-.077-1.348-1.146-2.443-2.403-2.443h-3.019c-1.251 0-2.2 1.095-2.122 2.443.077 1.349 1.146 2.444 2.403 2.444h3.019z" fill="#EFEFEF"/><path d="M66.902 1.996c6.24 0 11.634 5.477 12.029 12.211l.607 10.584H58.404c-6.24 0-11.004 5.48-10.617 12.214.386 6.734 5.78 12.214 12.029 12.214h21.123l.61 10.584c.386 6.734-4.377 12.21-10.618 12.21h-55.84c-6.244 0-11.635-5.476-12.03-12.21L.451 14.196C.066 7.46 4.826 1.996 11.07 1.996h55.833z" fill="#EFEFEF"/><path d="M66.902 1.996L72.67 0h.501l-5.768 1.996h-.501zm.501 0L73.177 0c.243 0 .484.031.724.06l-5.768 1.996a10.2 10.2 0 00-.724-.06" fill="#9F9F9F"/><path d="M68.127 2.056L73.896.06c.232.026.46.06.69.103l-5.768 1.995a9.36 9.36 0 00-.69-.102zm.691.102L74.586.163c.223.04.444.088.664.142l-5.768 1.996a10.173 10.173 0 00-.664-.143zm.664.143L75.251.305c.22.054.44.114.658.183l-5.768 1.995a10.214 10.214 0 00-.659-.182z" fill="#9F9F9F"/><path d="M70.141 2.483L75.91.488c.218.07.436.145.65.228L70.794 2.71c-.218-.082-.435-.16-.653-.228z" fill="#9F9F9F"/><path d="M70.794 2.711L76.559.716c.22.085.441.176.656.285l-5.768 1.996a34.255 34.255 0 00-.653-.286z" fill="#9F9F9F"/><path d="M71.458 2.985L77.227.99c.226.103.45.214.667.331l-5.768 1.996a11.174 11.174 0 00-.668-.33z" fill="#9F9F9F"/><path d="M72.114 3.316l5.768-1.996c.238.128.47.262.7.405l-5.77 1.995a9.042 9.042 0 00-.699-.405zm.699.404l5.769-1.995c.252.157.498.325.739.499l-5.77 1.996c-.24-.174-.487-.342-.739-.5z" fill="#9F9F9F"/><path d="M73.552 4.22l5.768-1.996c.287.205.548.419.808.647l-5.765 1.996c-.264-.225-.533-.44-.81-.645" fill="#9F9F9F"/><path d="M74.362 4.864l5.766-1.981c.348.3.68.62.994.955l-5.769 1.995a14.223 14.223 0 00-.99-.957" fill="#9F9F9F"/><path d="M75.353 5.822l5.769-1.996a13.418 13.418 0 012.832 4.727l-5.768 1.996a13.418 13.418 0 00-2.833-4.701" fill="#9F9F9F"/><path d="M78.186 10.524l5.768-1.996c.154.43.285.868.393 1.311l-5.769 1.996c-.105-.44-.233-.874-.383-1.3" fill="#9F9F9F"/><path d="M78.57 11.823l5.768-1.995c.083.342.152.69.206 1.04l-5.768 1.996c-.054-.35-.123-.698-.206-1.04zm.206 1.041l5.768-1.996c.05.303.086.608.115.916l-5.768 1.995a13.735 13.735 0 00-.115-.915zm.129.916l5.768-1.996c0 .136.023.285.029.416l-5.766 1.996c0-.14-.02-.285-.031-.416z" fill="#9F9F9F"/></svg>